# xmcd CD database file
#
# Track frame offsets:
#	150
#	14734
#	34997
#	46505
#	60837
#	69310
#	84075
#	98752
#	111530
#	123990
#	143910
#	155457
#
# Disc length: 2270 seconds
#
# Revision: 0
# Processed by: cddbd v1.5.2PL0 Copyright (c) Steve Scherf et al.
# Submitted via: CDex 1.51
#
DISCID=9408dc0c
DTITLE=Darkies - Ochre Country Red Ochre Band
DYEAR=2009
DGENRE=Country
TTITLE0=Pressing On Through
TTITLE1=Peaceful Easy Feeling
TTITLE2=City Girls
TTITLE3=Do Me With Love
TTITLE4=Cotton Fields
TTITLE5=Wonderful Tonight
TTITLE6=Brown Eyed Girl
TTITLE7=Took Off My Romeo
TTITLE8=Don't Forget To Remember
TTITLE9=Seven Spanish Angels
TTITLE10=Camaleena
TTITLE11=Good Hearted Women
EXTD=YEAR: 2009
EXTT0=
EXTT1=
EXTT2=
EXTT3=
EXTT4=
EXTT5=
EXTT6=
EXTT7=
EXTT8=
EXTT9=
EXTT10=
EXTT11=
PLAYORDER=
